# ProBuilder 4.4.0
# https://unity3d.com/unity/features/worldbuilding/probuilder
# 2/10/2021 3:48:34 PM

mtllib ./Water_Flowing_01.mtl
o Water_Flowing_01

g DeathWater_Flowing (7)
v -116.7792 -72.96937 -306.3647
v -119.1572 -73.62972 -304.844
v -119.3689 -73.63682 -305.4452
v -116.5675 -72.96227 -305.7636
v -114.1895 -72.30192 -307.2843
v -118.9456 -73.62263 -304.2429
v -113.9778 -72.29482 -306.6832
v -111.5997 -71.63447 -308.2039
v -116.3559 -72.95518 -305.1624
v -118.7339 -73.61554 -303.6417
v -111.3881 -71.62737 -307.6028
v -109.01 -70.96702 -309.1235
v -113.7662 -72.28773 -306.082
v -116.1442 -72.94809 -304.5613
v -118.5223 -73.60844 -303.0405
v -108.7984 -70.95993 -308.5224
v -106.4203 -70.29957 -310.0431
v -111.1765 -71.62029 -307.0016
v -113.5545 -72.28064 -305.4809
v -115.9326 -72.94099 -303.9601
v -118.3107 -73.60135 -302.4394
v -106.2087 -70.29248 -309.442
v -103.8306 -69.63212 -310.9627
v -108.5868 -70.95284 -307.9212
v -110.9648 -71.61319 -306.4005
v -113.3429 -72.27354 -304.8797
v -115.721 -72.9339 -303.359
v -118.099 -73.59426 -301.8382
v -103.619 -69.62503 -310.3616
v -101.2409 -68.96468 -311.8823
v -105.9971 -70.28539 -308.8408
v -108.3751 -70.94574 -307.3201
v -110.7532 -71.60609 -305.7993
v -113.1313 -72.26646 -304.2786
v -115.5093 -72.92681 -302.7578
v -117.8874 -73.58717 -301.2371
v -101.0293 -68.95758 -311.2812
v -98.65123 -68.29723 -312.8019
v -103.4074 -69.61794 -309.7604
v -105.7854 -70.27829 -308.2397
v -108.1635 -70.93865 -306.7189
v -110.5415 -71.59901 -305.1982
v -112.9196 -72.25936 -303.6774
v -115.2977 -72.91972 -302.1567
v -117.6757 -73.58007 -300.6359
v -115.086 -72.91262 -301.5555
v -117.4641 -73.57298 -300.0348
v -112.708 -72.25227 -303.0763
v -110.3299 -71.59191 -304.597
v -107.9519 -70.93156 -306.1178
v -105.5738 -70.2712 -307.6385
v -114.8744 -72.90553 -300.9544
v -117.2525 -73.56589 -299.4336
v -114.6628 -72.89844 -300.3532
v -112.4963 -72.24518 -302.4751
v -112.2847 -72.23808 -301.874
v -112.0731 -72.23099 -301.2728
v -110.1183 -71.58482 -303.9958
v -107.7402 -70.92446 -305.5166
v -109.9066 -71.57773 -303.3947
v -109.695 -71.57063 -302.7935
v -109.4834 -71.56354 -302.1924
v -107.5286 -70.91737 -304.9155
v -105.3621 -70.26411 -307.0374
v -107.3169 -70.91028 -304.3143
v -107.1053 -70.90318 -303.7131
v -106.8937 -70.8961 -303.112
v -105.1505 -70.25701 -306.4362
v -104.9389 -70.24992 -305.8351
v -104.7272 -70.24283 -305.2339
v -104.5156 -70.23573 -304.6328
v -104.3039 -70.22865 -304.0316
v -101.9259 -69.56828 -305.5523
v -101.7142 -69.5612 -304.9512
v -102.1375 -69.57538 -306.1535
v -102.3492 -69.58247 -306.7546
v -102.5608 -69.58956 -307.3558
v -102.7724 -69.59666 -307.9569
v -99.33618 -68.90084 -306.4719
v -99.12454 -68.89375 -305.8708
v -99.54782 -68.90793 -307.0731
v -99.75946 -68.91502 -307.6742
v -99.9711 -68.92212 -308.2754
v -96.74648 -68.23339 -307.3915
v -96.53484 -68.2263 -306.7904
v -96.95811 -68.24048 -307.9927
v -97.16975 -68.24757 -308.5938
v -94.15678 -67.56594 -308.3111
v -93.94514 -67.55885 -307.71
v -94.36842 -67.57304 -308.9123
v -91.56707 -66.89849 -309.2307
v -91.35543 -66.8914 -308.6295
v -91.77871 -66.90559 -309.8318
v -91.99035 -66.91267 -310.433
v -94.58006 -67.58012 -309.5134
v -92.20199 -66.91977 -311.0342
v -94.79169 -67.58722 -310.1146
v -92.41363 -66.92686 -311.6353
v -97.38139 -68.25467 -309.195
v -95.00333 -67.59431 -310.7157
v -92.62527 -66.93395 -312.2365
v -97.59303 -68.26176 -309.7961
v -95.21497 -67.6014 -311.3169
v -92.83691 -66.94105 -312.8376
v -100.1827 -68.92921 -308.8765
v -95.42661 -67.6085 -311.918
v -93.04855 -66.94814 -313.4388
v -97.80467 -68.26885 -310.3973
v -100.3944 -68.9363 -309.4777
v -95.63825 -67.61559 -312.5192
v -93.26019 -66.95523 -314.0399
v -98.01631 -68.27595 -310.9984
v -102.9841 -69.60375 -308.5581
v -95.84989 -67.62268 -313.1203
v -93.47182 -66.96233 -314.6411
v -96.06153 -67.62978 -313.7215
v -98.22795 -68.28304 -311.5996
v -100.606 -68.9434 -310.0789
v -103.1957 -69.61084 -309.1592
v -98.43959 -68.29013 -312.2007
v -100.8177 -68.95049 -310.68

vt 0.9 0
vt 1 0.1
vt 1 0
vt 0.9 0.1
vt 0.8 0
vt 1 0.2
vt 0.8 0.1
vt 0.7 0
vt 0.9 0.2
vt 1 0.3
vt 0.7 0.1
vt 0.6 0
vt 0.8 0.2
vt 0.9 0.3
vt 1 0.4
vt 0.6 0.1
vt 0.5 0
vt 0.7 0.2
vt 0.8 0.3
vt 0.9 0.4
vt 1 0.5
vt 0.5 0.1
vt 0.4 0
vt 0.6 0.2
vt 0.7 0.3
vt 0.8 0.4
vt 0.9 0.5
vt 1 0.6
vt 0.4 0.1
vt 0.3 0
vt 0.5 0.2
vt 0.6 0.3
vt 0.7 0.4
vt 0.8 0.5
vt 0.9 0.6
vt 1 0.7
vt 0.3 0.1
vt 0.2 0
vt 0.4 0.2
vt 0.5 0.3
vt 0.6 0.4
vt 0.7 0.5
vt 0.8 0.6
vt 0.9 0.7
vt 1 0.8
vt 0.9 0.8
vt 1 0.9
vt 0.8 0.7
vt 0.7 0.6
vt 0.6 0.5
vt 0.5 0.4
vt 0.9 0.9
vt 1 1
vt 0.9 1
vt 0.8 0.8
vt 0.8 0.9
vt 0.8 1
vt 0.7 0.7
vt 0.6 0.6
vt 0.7 0.8
vt 0.7 0.9
vt 0.7 1
vt 0.6 0.7
vt 0.5 0.5
vt 0.6 0.8
vt 0.6 0.9
vt 0.6 1
vt 0.5 0.6
vt 0.5 0.7
vt 0.5 0.8
vt 0.5 0.9
vt 0.5 1
vt 0.4 0.9
vt 0.4 1
vt 0.4 0.8
vt 0.4 0.7
vt 0.4 0.6
vt 0.4 0.5
vt 0.3 0.9
vt 0.3 1
vt 0.3 0.8
vt 0.3 0.7
vt 0.3 0.6
vt 0.2 0.9
vt 0.2 1
vt 0.2 0.8
vt 0.2 0.7
vt 0.1 0.9
vt 0.1 1
vt 0.1 0.8
vt 0 0.9
vt 0 1
vt 0 0.8
vt 0 0.7
vt 0.1 0.7
vt 0 0.6
vt 0.1 0.6
vt 0 0.5
vt 0.2 0.6
vt 0.1 0.5
vt 0 0.4
vt 0.2 0.5
vt 0.1 0.4
vt 0 0.3
vt 0.3 0.5
vt 0.1 0.3
vt 0 0.2
vt 0.2 0.4
vt 0.3 0.4
vt 0.1 0.2
vt 0 0.1
vt 0.2 0.3
vt 0.4 0.4
vt 0.1 0.1
vt 0 0
vt 0.1 0
vt 0.2 0.2
vt 0.3 0.3
vt 0.4 0.3
vt 0.2 0.1
vt 0.3 0.2

vn -0.1223561 0.5255479 0.03687534

usemtl Liquid_Flowing
f 4/4/1 1/1/1 3/3/1 2/2/1
f 7/7/1 5/5/1 1/1/1 4/4/1
f 9/9/1 4/4/1 2/2/1 6/6/1
f 11/11/1 8/8/1 5/5/1 7/7/1
f 13/13/1 7/7/1 4/4/1 9/9/1
f 14/14/1 9/9/1 6/6/1 10/10/1
f 16/16/1 12/12/1 8/8/1 11/11/1
f 18/18/1 11/11/1 7/7/1 13/13/1
f 19/19/1 13/13/1 9/9/1 14/14/1
f 20/20/1 14/14/1 10/10/1 15/15/1
f 22/22/1 17/17/1 12/12/1 16/16/1
f 24/24/1 16/16/1 11/11/1 18/18/1
f 25/25/1 18/18/1 13/13/1 19/19/1
f 26/26/1 19/19/1 14/14/1 20/20/1
f 27/27/1 20/20/1 15/15/1 21/21/1
f 29/29/1 23/23/1 17/17/1 22/22/1
f 31/31/1 22/22/1 16/16/1 24/24/1
f 32/32/1 24/24/1 18/18/1 25/25/1
f 33/33/1 25/25/1 19/19/1 26/26/1
f 34/34/1 26/26/1 20/20/1 27/27/1
f 35/35/1 27/27/1 21/21/1 28/28/1
f 37/37/1 30/30/1 23/23/1 29/29/1
f 39/39/1 29/29/1 22/22/1 31/31/1
f 40/40/1 31/31/1 24/24/1 32/32/1
f 41/41/1 32/32/1 25/25/1 33/33/1
f 42/42/1 33/33/1 26/26/1 34/34/1
f 43/43/1 34/34/1 27/27/1 35/35/1
f 44/44/1 35/35/1 28/28/1 36/36/1
f 120/120/1 38/38/1 30/30/1 37/37/1
f 121/121/1 37/37/1 29/29/1 39/39/1
f 119/119/1 39/39/1 31/31/1 40/40/1
f 51/51/1 40/40/1 32/32/1 41/41/1
f 50/50/1 41/41/1 33/33/1 42/42/1
f 49/49/1 42/42/1 34/34/1 43/43/1
f 48/48/1 43/43/1 35/35/1 44/44/1
f 46/46/1 44/44/1 36/36/1 45/45/1
f 52/52/1 46/46/1 45/45/1 47/47/1
f 55/55/1 48/48/1 44/44/1 46/46/1
f 58/58/1 49/49/1 43/43/1 48/48/1
f 59/59/1 50/50/1 42/42/1 49/49/1
f 64/64/1 51/51/1 41/41/1 50/50/1
f 54/54/1 52/52/1 47/47/1 53/53/1
f 56/56/1 55/55/1 46/46/1 52/52/1
f 57/57/1 56/56/1 52/52/1 54/54/1
f 60/60/1 58/58/1 48/48/1 55/55/1
f 63/63/1 59/59/1 49/49/1 58/58/1
f 61/61/1 60/60/1 55/55/1 56/56/1
f 62/62/1 61/61/1 56/56/1 57/57/1
f 65/65/1 63/63/1 58/58/1 60/60/1
f 68/68/1 64/64/1 50/50/1 59/59/1
f 66/66/1 65/65/1 60/60/1 61/61/1
f 67/67/1 66/66/1 61/61/1 62/62/1
f 69/69/1 68/68/1 59/59/1 63/63/1
f 70/70/1 69/69/1 63/63/1 65/65/1
f 71/71/1 70/70/1 65/65/1 66/66/1
f 72/72/1 71/71/1 66/66/1 67/67/1
f 74/74/1 73/73/1 71/71/1 72/72/1
f 73/73/1 75/75/1 70/70/1 71/71/1
f 75/75/1 76/76/1 69/69/1 70/70/1
f 76/76/1 77/77/1 68/68/1 69/69/1
f 77/77/1 78/78/1 64/64/1 68/68/1
f 80/80/1 79/79/1 73/73/1 74/74/1
f 79/79/1 81/81/1 75/75/1 73/73/1
f 81/81/1 82/82/1 76/76/1 75/75/1
f 82/82/1 83/83/1 77/77/1 76/76/1
f 85/85/1 84/84/1 79/79/1 80/80/1
f 84/84/1 86/86/1 81/81/1 79/79/1
f 86/86/1 87/87/1 82/82/1 81/81/1
f 89/89/1 88/88/1 84/84/1 85/85/1
f 88/88/1 90/90/1 86/86/1 84/84/1
f 92/92/1 91/91/1 88/88/1 89/89/1
f 90/90/1 88/88/1 91/91/1 93/93/1
f 95/95/1 90/90/1 93/93/1 94/94/1
f 87/87/1 86/86/1 90/90/1 95/95/1
f 97/97/1 95/95/1 94/94/1 96/96/1
f 99/99/1 87/87/1 95/95/1 97/97/1
f 100/100/1 97/97/1 96/96/1 98/98/1
f 83/83/1 82/82/1 87/87/1 99/99/1
f 102/102/1 99/99/1 97/97/1 100/100/1
f 103/103/1 100/100/1 98/98/1 101/101/1
f 105/105/1 83/83/1 99/99/1 102/102/1
f 108/108/1 102/102/1 100/100/1 103/103/1
f 106/106/1 103/103/1 101/101/1 104/104/1
f 78/78/1 77/77/1 83/83/1 105/105/1
f 110/110/1 106/106/1 104/104/1 107/107/1
f 109/109/1 105/105/1 102/102/1 108/108/1
f 112/112/1 108/108/1 103/103/1 106/106/1
f 113/113/1 78/78/1 105/105/1 109/109/1
f 114/114/1 110/110/1 107/107/1 111/111/1
f 118/118/1 109/109/1 108/108/1 112/112/1
f 117/117/1 112/112/1 106/106/1 110/110/1
f 51/51/1 64/64/1 78/78/1 113/113/1
f 116/116/1 114/114/1 111/111/1 115/115/1
f 120/120/1 117/117/1 110/110/1 114/114/1
f 119/119/1 113/113/1 109/109/1 118/118/1
f 121/121/1 118/118/1 112/112/1 117/117/1
f 40/40/1 51/51/1 113/113/1 119/119/1
f 38/38/1 120/120/1 114/114/1 116/116/1
f 39/39/1 119/119/1 118/118/1 121/121/1
f 37/37/1 121/121/1 117/117/1 120/120/1

